<?xml version="1.0" encoding="UTF-8" standalone="no"?>
<svg
   xmlns:dc="http://purl.org/dc/elements/1.1/"
   xmlns:cc="http://creativecommons.org/ns#"
   xmlns:rdf="http://www.w3.org/1999/02/22-rdf-syntax-ns#"
   xmlns:svg="http://www.w3.org/2000/svg"
   xmlns="http://www.w3.org/2000/svg"
   xmlns:sodipodi="http://sodipodi.sourceforge.net/DTD/sodipodi-0.dtd"
   xmlns:inkscape="http://www.inkscape.org/namespaces/inkscape"
   version="1.1"
   id="Capa_1"
   x="0px"
   y="0px"
   viewBox="0 0 480.005 609.38137"
   xml:space="preserve"
   width="512"
   height="650"
   sodipodi:docname="logo_W.svg"
   inkscape:version="0.92.5 (0.92.4+202004231256+fe8e1c6)"><metadata
   id="metadata75"><rdf:RDF><cc:Work
       rdf:about=""><dc:format>image/svg+xml</dc:format><dc:type
         rdf:resource="http://purl.org/dc/dcmitype/StillImage" /><dc:title></dc:title></cc:Work></rdf:RDF></metadata><defs
   id="defs73" /><sodipodi:namedview
   pagecolor="#ffffff"
   bordercolor="#666666"
   borderopacity="1"
   objecttolerance="10"
   gridtolerance="10"
   guidetolerance="10"
   inkscape:pageopacity="0"
   inkscape:pageshadow="2"
   inkscape:window-width="1301"
   inkscape:window-height="744"
   id="namedview71"
   showgrid="false"
   inkscape:zoom="0.4609375"
   inkscape:cx="-125.83051"
   inkscape:cy="256"
   inkscape:window-x="65"
   inkscape:window-y="24"
   inkscape:window-maximized="1"
   inkscape:current-layer="Capa_1" /><g
   id="g68"
   transform="translate(0,21.578633)"
   style="fill:#ffffff"><g
     id="g6"
     style="fill:#ffffff">
	<g
   id="g4"
   style="fill:#ffffff">
		<rect
   x="112.002"
   y="208.005"
   width="16"
   height="16"
   data-original="#000000"
   class="active-path"
   data-old_color="#000000"
   id="rect2"
   style="fill:#ffffff" />
	</g>
</g><g
     id="g12"
     style="fill:#ffffff">
	<g
   id="g10"
   style="fill:#ffffff">
		<rect
   x="152.002"
   y="192.005"
   width="16"
   height="16"
   data-original="#000000"
   class="active-path"
   data-old_color="#000000"
   id="rect8"
   style="fill:#ffffff" />
	</g>
</g><g
     id="g18"
     style="fill:#ffffff">
	<g
   id="g16"
   style="fill:#ffffff">
		<rect
   x="200.002"
   y="208.005"
   width="16"
   height="16"
   data-original="#000000"
   class="active-path"
   data-old_color="#000000"
   id="rect14"
   style="fill:#ffffff" />
	</g>
</g><g
     id="g24"
     style="fill:#ffffff">
	<g
   id="g22"
   style="fill:#ffffff">
		<rect
   x="248.002"
   y="192.005"
   width="16"
   height="16"
   data-original="#000000"
   class="active-path"
   data-old_color="#000000"
   id="rect20"
   style="fill:#ffffff" />
	</g>
</g><g
     id="g30"
     style="fill:#ffffff">
	<g
   id="g28"
   style="fill:#ffffff">
		<rect
   x="304.00201"
   y="192.005"
   width="16"
   height="16"
   data-original="#000000"
   class="active-path"
   data-old_color="#000000"
   id="rect26"
   style="fill:#ffffff" />
	</g>
</g><g
     id="g36"
     style="fill:#ffffff">
	<g
   id="g34"
   style="fill:#ffffff">
		<rect
   x="344.00201"
   y="208.005"
   width="16"
   height="16"
   data-original="#000000"
   class="active-path"
   data-old_color="#000000"
   id="rect32"
   style="fill:#ffffff" />
	</g>
</g><g
     id="g42"
     style="fill:#ffffff">
	<g
   id="g40"
   style="fill:#ffffff">
		<rect
   x="248.002"
   y="48.005001"
   width="16"
   height="16"
   data-original="#000000"
   class="active-path"
   data-old_color="#000000"
   id="rect38"
   style="fill:#ffffff" />
	</g>
</g><g
     id="g48"
     style="fill:#ffffff">
	<g
   id="g46"
   style="fill:#ffffff">
		<rect
   x="184.002"
   y="112.005"
   width="16"
   height="16"
   data-original="#000000"
   class="active-path"
   data-old_color="#000000"
   id="rect44"
   style="fill:#ffffff" />
	</g>
</g><g
     id="g54"
     style="fill:#ffffff">
	<g
   id="g52"
   style="fill:#ffffff">
		<rect
   x="224.002"
   y="128.005"
   width="16"
   height="16"
   data-original="#000000"
   class="active-path"
   data-old_color="#000000"
   id="rect50"
   style="fill:#ffffff" />
	</g>
</g><g
     id="g60"
     style="fill:#ffffff">
	<g
   id="g58"
   style="fill:#ffffff">
		<rect
   x="296.00201"
   y="112.005"
   width="16"
   height="16"
   data-original="#000000"
   class="active-path"
   data-old_color="#000000"
   id="rect56"
   style="fill:#ffffff" />
	</g>
</g><g
     id="g66"
     style="fill:#ffffff">
	<g
   id="g64"
   style="fill:#ffffff">
		<path
   d="m 403.514,240.181 c 17.819,-19.562 16.406,-49.865 -3.156,-67.684 -8.847,-8.059 -20.389,-12.515 -32.356,-12.492 h -20.32 c 17.717,-19.66 16.142,-49.96 -3.518,-67.678 -8.823,-7.951 -20.285,-12.343 -32.162,-12.322 h -0.552 c -4.056,-31.967 -31.225,-55.946 -63.448,-56 h -10.968 c -5.987,0.189 -11.305,-3.799 -12.8,-9.6 -0.316,-1.584 -0.316,-3.216 0,-4.8 0.413,-2.382 -0.262,-4.824 -1.84,-6.656 -1.6,-1.866 -3.934,-2.941 -6.392,-2.944 -20.547,-0.286 -38.924,12.736 -45.464,32.216 -5.044,14.874 -2.575,31.27 6.624,44 0.974,1.319 2.015,2.588 3.12,3.8 h -12.28 c -26.465,-0.045 -47.957,21.372 -48.002,47.838 -0.02,11.877 4.371,23.339 12.322,32.162 h -20.32 c -26.461,-0.051 -47.953,21.359 -48.004,47.82 -0.023,11.967 4.433,23.509 12.492,32.356 -25.055,1.838 -44.455,22.685 -44.488,47.808 -0.004,15.757 7.821,30.487 20.88,39.304 l 51.568,147.336 c 1.122,3.21 4.151,5.36 7.552,5.36 h 256 c 3.401,0 6.43,-2.15 7.552,-5.36 l 51.568,-147.336 c 13.059,-8.817 20.884,-23.547 20.88,-39.304 -0.024,-25.129 -19.426,-45.986 -44.488,-47.824 z M 185.762,37.205 c 3.544,-10.216 12.126,-17.868 22.68,-20.224 0,0.16 0.056,0.32 0.08,0.48 2.918,13.348 14.85,22.783 28.512,22.544 h 10.968 c 23.413,0.029 43.401,16.92 47.336,40 h -79.336 c -10.245,-0.021 -19.866,-4.923 -25.904,-13.2 -6.141,-8.587 -7.756,-19.613 -4.336,-29.6 z m -17.76,58.8 h 144 c 17.673,0 32,14.327 32,32 0,17.673 -14.327,32 -32,32 h -144 c -17.673,0 -32,-14.327 -32,-32 0,-17.673 14.327,-32 32,-32 z m -56,80 h 256 c 17.673,0 32,14.327 32,32 0,17.673 -14.327,32 -32,32 h -256 c -17.673,0 -32,-14.327 -32,-32 0,-17.673 14.327,-32 32,-32 z m 5.68,288 L 65.09,313.741 c 4.526,-4.432 10.481,-7.109 16.8,-7.552 7.723,-0.508 15.293,2.314 20.8,7.752 l 1.856,1.856 22.168,148.208 z m 25.216,0 -22.4,-149.2 4.616,-4.616 c 10.432,-10.401 27.312,-10.401 37.744,0 l 5.304,5.288 7.424,148.528 z m 89.104,0 h -40.384 l -7.448,-148.856 4.96,-4.96 c 10.432,-10.401 27.312,-10.401 37.744,0 l 5.128,5.128 z m 56.384,0 H 248.002 V 315.317 l 5.128,-5.128 c 10.432,-10.401 27.312,-10.401 37.744,0 l 4.96,4.96 z m 16.032,0 7.424,-148.528 5.288,-5.288 c 10.432,-10.401 27.312,-10.401 37.744,0 l 4.616,4.616 -22.384,149.2 z m 57.904,0 h -9.032 l 22.232,-148.208 1.856,-1.856 c 10.34,-10.35 27.087,-10.439 37.536,-0.2 z m 65.376,-160.056 -0.096,-0.088 c -1.654,-1.768 -3.456,-3.392 -5.384,-4.856 -0.304,-0.232 -0.6,-0.472 -0.904,-0.696 -1.885,-1.363 -3.878,-2.57 -5.96,-3.608 -0.376,-0.192 -0.752,-0.368 -1.144,-0.552 -2.124,-0.981 -4.327,-1.784 -6.584,-2.4 -0.32,-0.096 -0.648,-0.152 -0.976,-0.232 -2.418,-0.628 -4.886,-1.043 -7.376,-1.24 -1.016,-0.072 -2.024,-0.104 -3.032,-0.104 -1.008,0 -1.928,0.192 -2.896,0.256 -1.264,0.088 -2.52,0.152 -3.768,0.344 -1.4,0.224 -2.752,0.592 -4.12,0.952 -1.224,0.32 -2.448,0.584 -3.64,1.008 -1.495,0.58 -2.956,1.245 -4.376,1.992 -0.944,0.464 -1.92,0.8 -2.824,1.36 -2.328,1.36 -4.522,2.938 -6.552,4.712 l -1.88,-1.88 c -16.683,-16.639 -43.685,-16.639 -60.368,0 l -1.816,1.776 -1.816,-1.816 c -16.683,-16.639 -43.685,-16.639 -60.368,0 l -1.816,1.816 -1.816,-1.816 c -16.683,-16.639 -43.685,-16.639 -60.368,0 l -1.816,1.816 -1.816,-1.816 c -16.683,-16.639 -43.685,-16.639 -60.368,0 l -1.88,1.88 c -10.5,-9.352 -24.98,-12.835 -38.584,-9.28 -0.328,0.08 -0.656,0.136 -0.976,0.232 -2.257,0.616 -4.46,1.419 -6.584,2.4 -0.392,0.184 -0.8,0.36 -1.144,0.552 -2.082,1.038 -4.075,2.245 -5.96,3.608 -0.304,0.224 -0.6,0.464 -0.904,0.696 -1.928,1.464 -3.729,3.088 -5.384,4.856 l -0.096,0.088 c -2.825,-4.824 -4.311,-10.314 -4.304,-15.904 0,-17.673 14.327,-32 32,-32 h 320 c 17.673,0 32,14.327 32,32 0.014,5.603 -1.472,11.108 -4.304,15.944 z"
   data-original="#000000"
   class="active-path"
   data-old_color="#000000"
   id="path62"
   inkscape:connector-curvature="0"
   style="fill:#ffffff" />
	</g>
</g></g> <text
   xml:space="preserve"
   style="font-style:normal;font-weight:normal;font-size:92.47109985px;line-height:125%;font-family:Sans;letter-spacing:0px;word-spacing:0px;fill:#ffffff;fill-opacity:1;stroke:none;stroke-width:2.31177759px;stroke-linecap:butt;stroke-linejoin:miter;stroke-opacity:1;"
   x="8.5322895"
   y="577.4093"
   id="text884"><tspan
     sodipodi:role="line"
     id="tspan882"
     x="8.5322895"
     y="577.4093"
     style="font-style:normal;font-variant:normal;font-weight:normal;font-stretch:normal;font-family:Uroob;-inkscape-font-specification:Uroob;fill:#ffffff;stroke-width:2.31177759px;">DREAM PUFFS</tspan></text>
</svg>